Coordinates
version=1
nRows=17
nColumns=24
inDegrees=yes

Units are S.I. units (second, meters, Newtons, ...)
Angles are in degrees.

endheader
time	pelvis_tilt	pelvis_list	pelvis_rotation	pelvis_tx	pelvis_ty	pelvis_tz	hip_flexion_r	hip_adduction_r	hip_rotation_r	knee_angle_r	ankle_angle_r	subtalar_angle_r	mtp_angle_r	hip_flexion_l	hip_adduction_l	hip_rotation_l	knee_angle_l	ankle_angle_l	subtalar_angle_l	mtp_angle_l	lumbar_extension	lumbar_bending	lumbar_rotation
      0.78766667	      0.02917106	     -0.93965094	      1.19867834	     -0.35375730	      0.99507563	      0.30660213	     11.20446683	      5.53272906	     -3.72325649	    -16.87809980	      6.99562175	     -8.73609902	      5.11040260	     19.81142887	     -1.37661129	     -0.26269988	    -69.89818846	     -4.28642550	     -8.67119804	     -0.35109517	     -0.25242896	      4.27757864	      1.89091604
      0.79183333	      0.05114063	     -0.86961581	      1.05885026	     -0.34866418	      0.99575623	      0.30691072	     10.69193087	      5.48670549	     -3.67537185	    -16.57911337	      7.11093570	     -8.55658107	      5.12242170	     20.36854599	     -1.32900536	     -0.32459333	    -69.61888275	     -3.72547550	     -8.92566992	     -0.37169025	     -0.33478721	      4.20119875	      1.99062811
      0.79600000	      0.10325624	     -0.79737307	      0.90809458	     -0.34353640	      0.99647700	      0.30722570	     10.13231795	      5.43703505	     -3.62734792	    -16.25302972	      7.22606115	     -8.30829544	      5.13552236	     20.86468685	     -1.28479689	     -0.39897640	    -69.26912000	     -3.16801819	     -9.13114940	     -0.39671496	     -0.45095174	      4.13097470	      2.15670026
      0.80016667	      0.16552715	     -0.73156145	      0.75468320	     -0.33839280	      0.99718017	      0.30754177	      9.55494383	      5.38878928	     -3.60080838	    -15.91279307	      7.34453303	     -8.01224516	      5.15001699	     21.33165867	     -1.25294513	     -0.47899104	    -68.86472692	     -2.62254054	     -9.28588396	     -0.43082348	     -0.57097204	      4.06072860	      2.36623704
      0.80433333	      0.22614368	     -0.64100340	      0.60027044	     -0.33325817	      0.99786322	      0.30781791	      8.98279518	      5.30484335	     -3.58689583	    -15.57956558	      7.47499566	     -7.65528005	      5.16790959	     21.77822603	     -1.18332942	     -0.55356722	    -68.39308004	     -2.11250916	     -9.40370636	     -0.48691938	     -0.69755321	      3.98362235	      2.61752882
      0.80850000	      0.23372941	     -0.57327875	      0.41796093	     -0.32815734	      0.99839497	      0.30815653	      8.48481926	      5.25242006	     -3.53035457	    -15.27740902	      7.59397886	     -7.40826546	      5.17947799	     22.27622861	     -1.16048550	     -0.66696372	    -67.89655865	     -1.57351441	     -9.55417923	     -0.51664616	     -0.75978432	      3.91310021	      2.74492336
      0.81266667	      0.30688620	     -0.50228835	      0.25399869	     -0.32301805	      0.99903279	      0.30845140	      7.88962788	      5.18694065	     -3.51362308	    -14.92100317	      7.71719100	     -7.04552700	      5.19426724	     22.67393507	     -1.12172444	     -0.75092348	    -67.32327667	     -1.07526331	     -9.60573053	     -0.57192427	     -0.90079835	      3.84861614	      2.99390833
      0.81683333	      0.32935959	     -0.44334444	      0.05535679	     -0.31791510	      0.99952068	      0.30879222	      7.37245594	      5.13758569	     -3.45359595	    -14.60972115	      7.83175444	     -6.77497074	      5.20479163	     23.11769979	     -1.11786110	     -0.88371740	    -66.72303580	     -0.56770349	     -9.70366373	     -0.60683287	     -0.97751274	      3.79568346	      3.13365505
      0.82100000	      0.36426361	     -0.38246381	     -0.10975429	     -0.31279832	      0.99999366	      0.30907980	      6.82900337	      5.07546510	     -3.45042372	    -14.26987056	      7.95798755	     -6.39747443	      5.21858583	     23.53315577	     -1.09316291	     -0.97068167	    -66.06980129	     -0.10741945	     -9.70651063	     -0.67229104	     -1.07628118	      3.73628839	      3.38285389
      0.82516667	      0.39230102	     -0.32857894	     -0.29762811	     -0.30769398	      1.00042147	      0.30939191	      6.29884421	      5.02191000	     -3.41659157	    -13.93884849	      8.07447086	     -6.06975993	      5.23108087	     23.93692418	     -1.08879968	     -1.08849367	    -65.37057154	      0.33783652	     -9.73925397	     -0.73544896	     -1.16487016	      3.68166559	      3.56156912
      0.82933333	      0.42350425	     -0.27402028	     -0.50332960	     -0.30259351	      1.00082597	      0.30971200	      5.76946729	      4.96645774	     -3.35328997	    -13.61472504	      8.17934553	     -5.77908947	      5.24141099	     24.31314990	     -1.08964028	     -1.22408344	    -64.61667793	      0.77041324	     -9.77094855	     -0.77980071	     -1.25373404	      3.64466282	      3.70087124
      0.83350000	      0.48765695	     -0.23483765	     -0.66259577	     -0.29746895	      1.00122712	      0.30997365	      5.18587009	      4.91773500	     -3.36611536	    -13.25152337	      8.28821121	     -5.41566458	      5.25496969	     24.64441846	     -1.08960948	     -1.31177582	    -63.82483956	      1.15556880	     -9.73518321	     -0.85202525	     -1.38501152	      3.60186662	      3.91418538
      0.83766667	      0.48722558	     -0.19898291	     -0.86986552	     -0.29238528	      1.00148998	      0.31028334	      4.69550259	      4.87840648	     -3.28789513	    -12.93061474	      8.38845025	     -5.12304939	      5.26633606	     25.02617388	     -1.11123416	     -1.44548769	    -62.99273518	      1.53355343	     -9.73449130	     -0.89973884	     -1.44092880	      3.58411983	      4.03819120
      0.84183333	      0.52755349	     -0.16057054	     -1.05138813	     -0.28728085	      1.00176262	      0.31055618	      4.15110400	      4.82754793	     -3.25991947	    -12.58903429	      8.49224077	     -4.79299394	      5.27983919	     25.34547368	     -1.12073810	     -1.55910326	    -62.11321279	      1.87925914	     -9.69242887	     -0.95555956	     -1.54524556	      3.55103836	      4.20794153
      0.84600000	      0.56507901	     -0.12852054	     -1.22941912	     -0.28216944	      1.00202050	      0.31080950	      3.60821491	      4.78138495	     -3.22205497	    -12.24289182	      8.58926084	     -4.47580940	      5.29386013	     25.64584586	     -1.13039665	     -1.66124673	    -61.18221500	      2.18238717	     -9.65845028	     -1.01181465	     -1.64312821	      3.53173125	      4.35756159
      0.85016667	      0.59653963	     -0.10154510	     -1.39852594	     -0.27704629	      1.00221261	      0.31105031	      3.07224142	      4.73729147	     -3.20359063	    -11.89748440	      8.68573546	     -4.14716489	      5.31046982	     25.93657680	     -1.14349720	     -1.76018860	    -60.21363023	      2.46055892	     -9.61470971	     -1.07651263	     -1.73403973	      3.50829375	      4.51082117
      0.85433333	      0.64348000	     -0.07923646	     -1.53699823	     -0.27191656	      1.00238793	      0.31123626	      2.51814427	      4.69044483	     -3.24028518	    -11.54683926	      8.78548993	     -3.78953217	      5.33569317	     26.19500111	     -1.14436037	     -1.82711603	    -59.20200631	      2.70068574	     -9.56493304	     -1.18117131	     -1.84008684	      3.49384195	      4.68647864
